<svg xmlns="http://www.w3.org/2000/svg" width="37.212" height="47.845" viewBox="0 0 37.212 47.845">
  <g id="ObserwowanePropozycjeFuzjaIcon" transform="translate(-731.894 -147.655)">
    <path id="bookmark_FILL1_wght400_GRAD0_opsz24" d="M200-792.155v-42.529a5.119,5.119,0,0,1,1.562-3.755A5.119,5.119,0,0,1,205.316-840H231.9a5.119,5.119,0,0,1,3.754,1.562,5.119,5.119,0,0,1,1.562,3.755v42.529l-18.606-7.974Z" transform="translate(531.894 987.655)"/>
    <path id="forum_FILL1_wght400_GRAD0_opsz24" d="M85.986-860.862a1.159,1.159,0,0,1-.853-.344,1.157,1.157,0,0,1-.344-.852v-2.392h15.564v-10.765h2.394a1.159,1.159,0,0,1,.853.344,1.156,1.156,0,0,1,.344.852v17.942l-4.789-4.784ZM80-862.058V-878.8a1.157,1.157,0,0,1,.344-.852A1.159,1.159,0,0,1,81.2-880H96.761a1.159,1.159,0,0,1,.853.344,1.157,1.157,0,0,1,.344.852v10.765a1.157,1.157,0,0,1-.344.852,1.159,1.159,0,0,1-.853.344H84.789Z" transform="translate(658.528 1037.578)" fill="#f6d5d2"/>
  </g>
</svg>
