<svg xmlns="http://www.w3.org/2000/svg" width="37.212" height="47.845" viewBox="0 0 37.212 47.845">
  <g id="Group_5" data-name="Group 5" transform="translate(-729.651 -147.655)">
    <path id="bookmark_FILL1_wght400_GRAD0_opsz24" d="M200-792.155v-42.529a5.119,5.119,0,0,1,1.562-3.755A5.119,5.119,0,0,1,205.316-840H231.9a5.119,5.119,0,0,1,3.754,1.562,5.119,5.119,0,0,1,1.562,3.755v42.529l-18.606-7.974Z" transform="translate(529.651 987.655)"/>
    <path id="location_city_FILL1_wght400_GRAD0_opsz24" d="M120-855.644v-17.946h7.691v-2.564L131.537-880l3.846,3.846v7.691h7.691v12.819Zm2.564-2.564h2.564v-2.564h-2.564Zm0-5.128h2.564V-865.9h-2.564Zm0-5.128h2.564v-2.564h-2.564Zm7.691,10.255h2.564v-2.564h-2.564Zm0-5.128h2.564V-865.9h-2.564Zm0-5.128h2.564v-2.564h-2.564Zm0-5.127h2.564v-2.564h-2.564Zm7.691,15.382h2.564v-2.564h-2.564Zm0-5.128h2.564V-865.9h-2.564Z" transform="translate(616.72 1034.811)" fill="#f6d5d2"/>
  </g>
</svg>
