<svg xmlns="http://www.w3.org/2000/svg" width="71" height="89.561" viewBox="0 0 71 89.561">
  <g id="Pin" transform="translate(-1253 -625.239)">
    <path id="Union_1" data-name="Union 1" d="M8.819,61.069Q0,47.915,0,36.72,0,19.927,10.706,9.964A35.286,35.286,0,0,1,35.5,0,35.286,35.286,0,0,1,60.294,9.964Q71,19.927,71,36.72q0,11.194-8.819,24.349T35.5,89.561Q17.639,74.224,8.819,61.069Z" transform="translate(1253 625.239)" fill="#e44044"/>
    <path id="account_balance_FILL1_wght400_GRAD0_opsz24" d="M85.9-888.52v-13.772h3.935v13.772Zm11.8,0v-13.772h3.935v13.772ZM80-880.651v-3.935h39.35v3.935Zm29.512-7.87v-13.772h3.935v13.772ZM80-906.228v-3.935L99.675-920l19.675,9.837v3.935Z" transform="translate(1188.816 1559.507)"/>
  </g>
</svg>
