<svg xmlns="http://www.w3.org/2000/svg" width="70.999" height="89.561" viewBox="0 0 70.999 89.561">
  <g id="PinGrey" transform="translate(-1253 -625.239)">
    <path id="Union_1" data-name="Union 1" d="M8.82,61.069Q0,47.915,0,36.72q0-16.793,10.7-26.756A35.292,35.292,0,0,1,35.5,0,35.292,35.292,0,0,1,60.295,9.964Q71,19.927,71,36.72q0,11.2-8.82,24.349T35.5,89.561Q17.639,74.223,8.82,61.069Z" transform="translate(1253 625.239)" fill="#778283"/>
    <path id="nature_FILL1_wght400_GRAD0_opsz24" d="M162.411-833.519v-4.648H176.88v-9.3h-4.823a11.844,11.844,0,0,1-8.53-3.4A11,11,0,0,1,160-859.083a11.2,11.2,0,0,1,1.989-6.42,11.387,11.387,0,0,1,5.365-4.271,11.157,11.157,0,0,1,3.949-7.292A11.854,11.854,0,0,1,179.292-880a11.854,11.854,0,0,1,7.988,2.934,11.157,11.157,0,0,1,3.949,7.292,11.387,11.387,0,0,1,5.365,4.271,11.2,11.2,0,0,1,1.989,6.42,11,11,0,0,1-3.527,8.221,11.844,11.844,0,0,1-8.53,3.4H181.7v9.3h14.469v4.648Z" transform="translate(1109.208 1517.651)"/>
  </g>
</svg>
