<svg xmlns="http://www.w3.org/2000/svg" width="71" height="89.561" viewBox="0 0 71 89.561">
  <g id="PinZlobekEducation" transform="translate(-1253 -625.239)">
    <path id="Union_1" data-name="Union 1" d="M8.819,61.069Q0,47.915,0,36.72,0,19.927,10.706,9.964A35.286,35.286,0,0,1,35.5,0,35.286,35.286,0,0,1,60.294,9.964Q71,19.927,71,36.72q0,11.194-8.819,24.349T35.5,89.561Q17.639,74.224,8.819,61.069Z" transform="translate(1253 625.239)" fill="#e44044"/>
    <path id="school_FILL1_wght400_GRAD0_opsz24" d="M87.116-807.019v-16.255l-21.2,11.544L40-825.865,65.914-840l25.914,14.135v18.846Zm-21.2,9.423-16.491-8.952v-11.779l16.491,8.952L82.4-818.327v11.779Z" transform="translate(1222.586 1480.834)"/>
  </g>
</svg>
